<?xml version="1.0" encoding="UTF-8"?>
<svg version="1.1" xmlns="http://www.w3.org/2000/svg" width="1000" height="1000">
<path d="M0 0 C330 0 660 0 1000 0 C1000 330 1000 660 1000 1000 C670 1000 340 1000 0 1000 C0 670 0 340 0 0 Z " fill="#000000" transform="translate(0,0)"/>
<path d="M0 0 C0.87011719 0.12117188 1.74023438 0.24234375 2.63671875 0.3671875 C23.83327 3.80067845 42.15527686 16.17210704 55.01953125 33.12109375 C79.09931329 68.12464279 91.40527193 110.38021209 105.51367188 150.02050781 C109.02412051 159.88070839 112.55788184 169.73253767 116.09204102 179.58425903 C117.25908509 182.83782805 118.42551826 186.09161551 119.59179688 189.34545898 C125.88466012 206.90052278 132.19136293 224.45060065 138.5 242 C147.90341604 268.15847158 157.29089241 294.32262058 166.66748047 320.49072266 C168.66885262 326.0760528 170.67056657 331.66126036 172.67251587 337.24638367 C173.49627582 339.54455306 174.3199861 341.84274026 175.14364624 344.14094543 C177.16142123 349.77065535 179.18019648 355.40000258 181.20117188 361.02856445 C184.50990555 370.2459354 187.8163849 379.46383698 191.07914734 388.69760132 C192.33999314 392.26491358 193.60589835 395.83042082 194.87216187 399.39581299 C195.44327213 401.00874035 196.01179199 402.62258806 196.57730103 404.23748779 C204.96554324 430.29672112 204.96554324 430.29672112 223.23828125 449.1953125 C226.95548938 450.89319471 229.95249749 451.16317607 234 451.1875 C235.051875 451.20167969 236.10375 451.21585938 237.1875 451.23046875 C242.17156529 450.92917792 247.08737655 449.89320426 252 449 C252 462.86 252 476.72 252 491 C234.57962977 498.74238677 213.24342047 501.65775636 194.5 496.4375 C175.38641834 488.9855564 165.27083573 474.05069756 157.10375977 456.00854492 C152.36340383 445.05150217 148.6793675 433.61878955 144.75399017 422.34889221 C143.47869257 418.69311736 142.19446999 415.04048228 140.91064453 411.38769531 C139.36918718 407.00066014 137.82816559 402.61347784 136.290802 398.2250061 C132.49447713 387.38942044 128.65283551 376.57066504 124.77639771 365.76345825 C118.36156491 347.87633215 112.02772173 329.96150799 105.75683594 312.0234375 C104.50936474 308.45506899 103.25967276 304.88748618 102.00878906 301.3203125 C75 224.2789071 75 224.2789071 75 212 C73.68 212 72.36 212 71 212 C70.92136719 213.20140625 70.84273437 214.4028125 70.76171875 215.640625 C70.01316366 222.262954 67.8930756 228.44676518 65.8125 234.75 C65.59547424 235.41450165 65.37844849 236.0790033 65.15484619 236.76364136 C51.25182374 279.225763 33.13177002 320.07837063 15.11920166 360.91383362 C11.92525903 368.15917823 8.76699151 375.419456 5.625 382.6875 C4.59119379 385.07814574 3.55733784 387.46876997 2.5234375 389.859375 C2.25444138 390.48142319 1.98544525 391.10347137 1.70829773 391.74436951 C-2.43168405 401.31429129 -6.59199381 410.87539992 -10.75 420.4375 C-11.17424255 421.41313904 -11.59848511 422.38877808 -12.0355835 423.39398193 C-17.81766553 436.69021497 -23.60330047 449.9849009 -29.3951416 463.27688599 C-30.12236961 464.94585057 -30.84950427 466.61485584 -31.57653809 468.28390503 C-32.58192264 470.59176769 -33.58776254 472.89943133 -34.59375 475.20703125 C-34.8814325 475.86754486 -35.16911499 476.52805847 -35.46551514 477.20858765 C-37.62059148 482.14977219 -39.81046769 487.0735523 -42 492 C-61.47 492 -80.94 492 -101 492 C-92.95538224 472.46307116 -92.95538224 472.46307116 -90.046875 465.8828125 C-89.54036407 464.73019424 -89.54036407 464.73019424 -89.02362061 463.55429077 C-87.93435975 461.07699877 -86.84223889 458.60098023 -85.75 456.125 C-84.96404849 454.33925618 -84.17824484 452.55344727 -83.39257812 450.76757812 C-76.98230686 436.20309322 -70.54625837 421.64995804 -64.1105957 407.09667969 C-56.452495 389.77630103 -48.84004731 372.43600991 -41.23388672 355.09277344 C-37.11670953 345.70556441 -32.99475939 336.3204497 -28.87371826 326.93493652 C-27.74781433 324.37069962 -26.62194156 321.80644904 -25.49609375 319.2421875 C-25.12464233 318.39615967 -24.75319092 317.55013184 -24.3704834 316.6784668 C-22.12953998 311.57402812 -19.88967302 306.4691186 -17.65066528 301.36383057 C-9.6252926 283.06484794 -1.58147811 264.77428133 6.5 246.5 C11.25500136 235.746835 16.00720683 224.99246779 20.7421875 214.23046875 C21.12918823 213.35097565 21.51618896 212.47148254 21.91491699 211.56533813 C23.81865149 207.23622353 25.71781817 202.90518904 27.60839844 198.5703125 C28.33514592 196.90488658 29.06203215 195.2395212 29.7890625 193.57421875 C30.31820251 192.36214249 30.31820251 192.36214249 30.85803223 191.12557983 C32.89414697 186.47707038 34.97096092 181.85009561 37.09353638 177.24043274 C38.36504828 174.47498526 39.61893289 171.70173415 40.87091064 168.92739868 C41.44704359 167.6642303 42.03200253 166.405042 42.62664795 165.15048218 C43.43503787 163.44412494 44.21051103 161.72229029 44.984375 160 C45.42491211 159.05125 45.86544922 158.1025 46.31933594 157.125 C47.86946005 150.00821786 44.31802069 142.60070536 41.875 135.9609375 C41.57191422 135.1252977 41.26882843 134.2896579 40.95655823 133.42869568 C39.97835898 130.74138527 38.99035951 128.05785097 38 125.375 C37.66330292 124.45915131 37.32660583 123.54330261 36.97970581 122.59970093 C23.75666501 81.06521533 23.75666501 81.06521533 -5 51 C-24.81817169 43.59200553 -44.69038733 45.43155663 -65.20019531 48.72460938 C-67 49 -67 49 -68 49 C-68 33.82 -68 18.64 -68 3 C-44.75872493 -1.64825501 -23.45660285 -3.87757579 0 0 Z " fill="#FDFDFD" transform="translate(390,263)"/>
<path d="M0 0 C0.928125 0.7425 1.85625 1.485 2.8125 2.25 C3.35261719 2.67410156 3.89273438 3.09820312 4.44921875 3.53515625 C16.93864024 14.50900749 21.54512204 33.77065287 26.8125 48.875 C27.64054721 51.22126702 28.46974758 53.56712735 29.30004883 55.91259766 C30.99058801 60.69293717 32.67487916 65.47540515 34.35400391 70.25976562 C36.65832803 76.82065546 38.98622521 83.37291762 41.32421875 89.921875 C60.832 144.57707174 60.832 144.57707174 64.8125 158.25 C65.35197266 160.07144531 65.35197266 160.07144531 65.90234375 161.9296875 C68.70836962 171.53608212 68.70836962 171.53608212 69.30078125 175.59765625 C69.55408203 176.91056641 69.55408203 176.91056641 69.8125 178.25 C70.4725 178.58 71.1325 178.91 71.8125 179.25 C71.99558716 177.73043701 71.99558716 177.73043701 72.18237305 176.18017578 C72.78942134 172.39394428 73.70555958 169.00811329 74.89453125 165.3671875 C75.20895172 164.40282272 75.20895172 164.40282272 75.52972412 163.41897583 C76.21946197 161.3179877 76.92055572 159.22110063 77.625 157.125 C77.86958954 156.3942627 78.11417908 155.66352539 78.36618042 154.91064453 C83.47358461 139.71924313 89.41063176 124.94103391 95.8125 110.25 C96.1463269 109.48326965 96.48015381 108.71653931 96.82409668 107.92657471 C101.00103981 98.33979878 105.20820082 88.76645168 109.4296875 79.19921875 C113.11135659 70.85529027 116.75693465 62.49670685 120.375 54.125 C121.391839 51.77470147 122.40876799 49.42444188 123.42578125 47.07421875 C123.81424477 46.176427 123.81424477 46.176427 124.21055603 45.26049805 C127.76578771 37.04513365 131.32658646 28.83219805 134.89572144 20.62286377 C135.67029732 18.84016217 136.44400692 17.0570839 137.21682739 15.27362061 C138.29338392 12.78951993 139.37289229 10.30672256 140.453125 7.82421875 C140.77850754 7.07163284 141.10389008 6.31904694 141.43913269 5.5436554 C143.69844255 0.36405745 143.69844255 0.36405745 144.8125 -0.75 C147.55144085 -0.83858646 150.2650327 -0.86523479 153.00390625 -0.84765625 C153.82374496 -0.8462413 154.64358368 -0.84482635 155.48826599 -0.84336853 C158.11721382 -0.83775289 160.74607773 -0.82519779 163.375 -0.8125 C165.15299357 -0.80748701 166.93098846 -0.80292376 168.70898438 -0.79882812 C173.07685545 -0.78777839 177.44466348 -0.77050331 181.8125 -0.75 C179.88367677 5.3748805 177.62505673 11.23787624 174.99609375 17.09375 C174.62778442 17.92343292 174.2594751 18.75311584 173.88000488 19.60794067 C173.08733078 21.39236616 172.29279229 23.17596443 171.49655151 24.95880127 C169.78558415 28.78989037 168.08378966 32.62503343 166.38124084 36.45986938 C165.49804621 38.44883291 164.6143646 40.43758026 163.73020935 42.42611694 C159.37239249 52.22881371 155.05745075 62.05009232 150.75 71.875 C150.00444934 73.57440556 149.25884369 75.27378699 148.51318359 76.97314453 C146.27901543 82.06516356 144.04567635 87.15754594 141.8125 92.25 C138.83403813 99.04197601 135.85503542 105.83371423 132.875 112.625 C132.50560303 113.46691895 132.13620605 114.30883789 131.75561523 115.17626953 C126.73849694 126.60931061 121.70220267 138.03371537 116.64916992 149.45092773 C115.06074943 153.04042347 113.47499577 156.63107706 111.8918457 160.22290039 C111.10891619 161.99887367 110.32595725 163.77483398 109.54296875 165.55078125 C109.1565773 166.4273085 108.77018585 167.30383575 108.37208557 168.20692444 C105.95056939 173.69295933 103.50678657 179.1685301 101.04823303 184.63806152 C99.42846655 188.2476604 97.82070486 191.86252956 96.21511841 195.47845459 C95.45374061 197.185381 94.6869687 198.88991275 93.91452026 200.59185791 C92.85087781 202.93678102 91.80628814 205.2893395 90.765625 207.64453125 C90.44898392 208.33000534 90.13234283 209.01547943 89.80610657 209.72172546 C85.7855596 218.96324719 91.01797514 228.04848207 94.25 236.9375 C94.51783295 237.67554871 94.78566589 238.41359741 95.06161499 239.17401123 C98.32737038 248.11694733 101.70625161 256.9241328 106.125 265.375 C106.68175415 266.45334106 106.68175415 266.45334106 107.24975586 267.5534668 C111.49828453 275.24851072 117.22897804 281.05085313 125.66015625 283.8671875 C136.94454046 286.94666431 149.40174666 285.12775026 160.8125 284.25 C160.8125 293.82 160.8125 303.39 160.8125 313.25 C141.34175448 318.81307015 118.30479571 318.73337505 99.9375 309.5625 C72.13143927 292.90391407 62.60588797 255.03486515 52.5 226.375 C51.62083335 223.89560816 50.74101855 221.41644605 49.8605957 218.9375 C48.5047037 215.11947936 47.14920148 211.30132399 45.79631042 207.48223877 C41.39569616 195.06017062 36.9516542 182.65385049 32.5 170.25 C31.72789704 168.09726689 30.95584339 165.9445161 30.18383789 163.79174805 C25.78072497 151.51495815 21.3731743 139.2397609 16.96484375 126.96484375 C16.71650158 126.27330515 16.46815941 125.58176655 16.21229172 124.86927223 C13.46929468 117.23133877 10.72456861 109.59403333 7.97558594 101.95825195 C7.01881662 99.30031585 6.06212443 96.642352 5.10546875 93.984375 C4.87362507 93.34030386 4.64178139 92.69623272 4.40291214 92.03264427 C1.79407306 84.7837149 -0.80376088 77.53109644 -3.3727417 70.26792908 C-4.5629817 66.90314755 -5.75912802 63.54048199 -6.95587158 60.17800903 C-7.71339276 58.04078159 -8.46117403 55.90033119 -9.20849609 53.75952148 C-14.76159853 37.39613828 -14.76159853 37.39613828 -27.1875 26.25 C-30.07323352 26.17800066 -32.92815115 26.1572932 -35.8125 26.1875 C-39.958125 26.2184375 -39.958125 26.2184375 -44.1875 26.25 C-44.1875 17.34 -44.1875 8.43 -44.1875 -0.75 C-29.7442297 -6.12424011 -13.95372509 -7.66086868 0 0 Z " fill="#FDFDFD" transform="translate(527.1875,281.75)"/>
</svg>
